<svg xmlns="http://www.w3.org/2000/svg" xmlns:xlink="http://www.w3.org/1999/xlink" width="500" zoomAndPan="magnify" viewBox="0 0 375 374.999991" height="500" preserveAspectRatio="xMidYMid meet" version="1.0"><defs><g/></defs><g fill="#ffffff" fill-opacity="1"><g transform="translate(63.63884, 160.436416)"><g><path d="M 13.21875 -24.953125 L 3.421875 -24.953125 L 3.421875 -24.359375 L 6.828125 -24.359375 L 6.828125 -0.671875 C 6.828125 0.671875 6.640625 1.628906 6.265625 2.203125 C 5.898438 2.785156 5.25 3.078125 4.3125 3.078125 C 3.8125 3.078125 3.347656 2.984375 2.921875 2.796875 C 2.503906 2.617188 2.175781 2.367188 1.9375 2.046875 C 2.53125 2.046875 2.972656 1.863281 3.265625 1.5 C 3.566406 1.144531 3.71875 0.695312 3.71875 0.15625 C 3.71875 -0.269531 3.578125 -0.648438 3.296875 -0.984375 C 3.023438 -1.316406 2.628906 -1.484375 2.109375 -1.484375 C 1.546875 -1.484375 1.128906 -1.300781 0.859375 -0.9375 C 0.585938 -0.582031 0.453125 -0.117188 0.453125 0.453125 C 0.453125 0.796875 0.535156 1.15625 0.703125 1.53125 C 0.878906 1.914062 1.140625 2.269531 1.484375 2.59375 C 1.828125 2.914062 2.253906 3.1875 2.765625 3.40625 C 3.273438 3.632812 3.863281 3.75 4.53125 3.75 C 8.46875 3.75 10.4375 1.804688 10.4375 -2.078125 L 10.4375 -24.359375 L 13.21875 -24.359375 Z M 13.21875 -24.953125 "/></g></g></g><g fill="#ffffff" fill-opacity="1"><g transform="translate(85.476739, 160.436416)"><g><path d="M 10.8125 -24.953125 L 0.8125 -24.953125 L 0.8125 -24.359375 L 4.015625 -24.359375 L 4.015625 -6.203125 C 4.015625 -4.890625 4.265625 -3.789062 4.765625 -2.90625 C 5.273438 -2.03125 5.929688 -1.320312 6.734375 -0.78125 C 7.546875 -0.238281 8.445312 0.140625 9.4375 0.359375 C 10.425781 0.585938 11.40625 0.703125 12.375 0.703125 C 14.71875 0.703125 16.546875 0.128906 17.859375 -1.015625 C 19.171875 -2.171875 19.828125 -3.898438 19.828125 -6.203125 L 19.828125 -24.359375 L 23.03125 -24.359375 L 23.03125 -24.953125 L 16.046875 -24.953125 L 16.046875 -24.359375 L 19.234375 -24.359375 L 19.234375 -6.203125 C 19.234375 -5.210938 19.078125 -4.328125 18.765625 -3.546875 C 18.460938 -2.765625 18.035156 -2.109375 17.484375 -1.578125 C 16.941406 -1.046875 16.304688 -0.644531 15.578125 -0.375 C 14.847656 -0.101562 14.0625 0.03125 13.21875 0.03125 C 11.488281 0.03125 10.117188 -0.503906 9.109375 -1.578125 C 8.109375 -2.648438 7.609375 -4.191406 7.609375 -6.203125 L 7.609375 -24.359375 L 10.8125 -24.359375 Z M 10.8125 -24.953125 "/></g></g></g><g fill="#ffffff" fill-opacity="1"><g transform="translate(117.267302, 160.436416)"><g><path d="M 20.609375 -6.875 C 20.410156 -5.925781 20.195312 -5.066406 19.96875 -4.296875 C 19.75 -3.535156 19.453125 -2.875 19.078125 -2.3125 C 18.710938 -1.757812 18.242188 -1.332031 17.671875 -1.03125 C 17.109375 -0.738281 16.394531 -0.59375 15.53125 -0.59375 L 7.90625 -0.59375 L 7.90625 -24.359375 L 11.4375 -24.359375 L 11.4375 -24.953125 L 1.109375 -24.953125 L 1.109375 -24.359375 L 4.3125 -24.359375 L 4.3125 -0.59375 L 1.109375 -0.59375 L 1.109375 0 L 20.234375 0 C 20.953125 0 21.3125 -0.394531 21.3125 -1.1875 L 21.3125 -6.765625 C 21.3125 -7.359375 21.210938 -7.65625 21.015625 -7.65625 C 20.847656 -7.65625 20.710938 -7.394531 20.609375 -6.875 Z M 20.609375 -6.875 "/></g></g></g><g fill="#ffffff" fill-opacity="1"><g transform="translate(147.609525, 160.436416)"><g><path d="M 11.59375 -24.359375 L 11.59375 -24.953125 L 1.59375 -24.953125 L 1.59375 -24.359375 L 4.796875 -24.359375 L 4.796875 -0.59375 L 1.59375 -0.59375 L 1.59375 0 L 11.59375 0 L 11.59375 -0.59375 L 8.390625 -0.59375 L 8.390625 -24.359375 Z M 11.59375 -24.359375 "/></g></g></g><g fill="#ffffff" fill-opacity="1"><g transform="translate(168.890373, 160.436416)"><g><path d="M 0.8125 -0.59375 L 0.8125 0 L 9.0625 0 L 9.0625 -0.59375 L 4.6875 -0.59375 L 7.015625 -7.765625 L 14.484375 -7.765625 L 16.90625 -0.59375 L 13.078125 -0.59375 L 13.078125 0 L 23.953125 0 L 23.953125 -0.59375 L 20.71875 -0.59375 L 12.59375 -25.296875 L 12.140625 -25.296875 L 4.015625 -0.59375 Z M 10.734375 -18.984375 L 14.296875 -8.359375 L 7.25 -8.359375 Z M 10.734375 -18.984375 "/></g></g></g><g fill="#ffffff" fill-opacity="1"><g transform="translate(201.535078, 160.436416)"><g><path d="M 1 -0.59375 L 1 0 L 7.984375 0 L 7.984375 -0.59375 L 4.796875 -0.59375 L 4.796875 -23.28125 L 19.171875 0.296875 L 20.421875 0.296875 L 20.421875 -24.359375 L 23.625 -24.359375 L 23.625 -24.953125 L 16.640625 -24.953125 L 16.640625 -24.359375 L 19.828125 -24.359375 L 19.828125 -6.125 L 8.3125 -24.953125 L 1 -24.953125 L 1 -24.359375 L 4.203125 -24.359375 L 4.203125 -0.59375 Z M 1 -0.59375 "/></g></g></g><g fill="#ffffff" fill-opacity="1"><g transform="translate(234.031238, 160.436416)"><g><path d="M 0.8125 -0.59375 L 0.8125 0 L 9.0625 0 L 9.0625 -0.59375 L 4.6875 -0.59375 L 7.015625 -7.765625 L 14.484375 -7.765625 L 16.90625 -0.59375 L 13.078125 -0.59375 L 13.078125 0 L 23.953125 0 L 23.953125 -0.59375 L 20.71875 -0.59375 L 12.59375 -25.296875 L 12.140625 -25.296875 L 4.015625 -0.59375 Z M 10.734375 -18.984375 L 14.296875 -8.359375 L 7.25 -8.359375 Z M 10.734375 -18.984375 "/></g></g></g><g fill="#ffffff" fill-opacity="1"><g transform="translate(244.667068, 190.293196)"><g><path d="M 97.984375 -45.484375 C 98.171875 -45.253906 98.320312 -44.992188 98.4375 -44.703125 C 98.550781 -44.421875 98.570312 -44.078125 98.5 -43.671875 C 98.40625 -43.234375 98.117188 -42.898438 97.640625 -42.671875 C 97.367188 -42.554688 97.140625 -42.539062 96.953125 -42.625 C 96.765625 -42.707031 96.671875 -42.875 96.671875 -43.125 C 96.671875 -43.820312 96.488281 -44.367188 96.125 -44.765625 C 95.757812 -45.171875 95.332031 -45.53125 94.84375 -45.84375 C 93.769531 -46.53125 92.609375 -47.09375 91.359375 -47.53125 C 90.117188 -47.96875 88.84375 -48.347656 87.53125 -48.671875 C 85.320312 -49.179688 82.257812 -49.507812 78.34375 -49.65625 C 74.4375 -49.8125 70 -49.753906 65.03125 -49.484375 C 60.070312 -49.210938 54.90625 -48.691406 49.53125 -47.921875 C 44.15625 -47.148438 38.890625 -46.085938 33.734375 -44.734375 C 28.585938 -43.390625 23.882812 -41.707031 19.625 -39.6875 C 15.363281 -37.675781 11.867188 -35.304688 9.140625 -32.578125 C 6.828125 -30.203125 5.628906 -27.695312 5.546875 -25.0625 C 5.515625 -23.25 5.820312 -21.601562 6.46875 -20.125 C 7.40625 -17.90625 8.609375 -15.875 10.078125 -14.03125 C 11.273438 -12.382812 12.488281 -10.742188 13.71875 -9.109375 C 14.925781 -7.535156 16.128906 -5.9375 17.328125 -4.3125 C 18.640625 -2.488281 19.921875 -0.640625 21.171875 1.234375 C 21.273438 1.410156 21.394531 1.582031 21.53125 1.75 C 22.21875 2.71875 22.738281 3.789062 23.09375 4.96875 C 23.414062 6.3125 23.191406 7.351562 22.421875 8.09375 C 21.648438 8.832031 20.515625 9.332031 19.015625 9.59375 C 17.523438 9.863281 15.875 9.945312 14.0625 9.84375 C 12.25 9.738281 10.46875 9.503906 8.71875 9.140625 C 6.976562 8.785156 5.472656 8.351562 4.203125 7.84375 C 2.929688 7.34375 2.097656 6.828125 1.703125 6.296875 C 0.898438 5.179688 1.25 4.003906 2.75 2.765625 C 4.332031 1.484375 6.035156 0.554688 7.859375 -0.015625 C 10.546875 -0.921875 12.941406 -0.992188 15.046875 -0.234375 C 15.460938 -0.0664062 15.828125 0.148438 16.140625 0.421875 C 16.171875 0.441406 16.195312 0.46875 16.21875 0.5 C 16.3125 0.5625 16.351562 0.65625 16.34375 0.78125 C 16.34375 0.914062 16.273438 1.054688 16.140625 1.203125 C 15.867188 1.429688 15.617188 1.5 15.390625 1.40625 C 15.148438 1.3125 14.941406 1.195312 14.765625 1.0625 C 13.398438 0.226562 11.753906 0.0507812 9.828125 0.53125 C 7.898438 1.019531 6.066406 1.976562 4.328125 3.40625 C 3.554688 4.09375 3.3125 4.695312 3.59375 5.21875 C 3.875 5.738281 4.4375 6.179688 5.28125 6.546875 C 6.125 6.910156 7 7.191406 7.90625 7.390625 C 8.8125 7.597656 9.492188 7.738281 9.953125 7.8125 C 10.046875 7.8125 10.113281 7.820312 10.15625 7.84375 C 10.25 7.84375 10.359375 7.851562 10.484375 7.875 C 11.046875 8.019531 11.835938 8.164062 12.859375 8.3125 C 13.890625 8.46875 14.96875 8.570312 16.09375 8.625 C 17.21875 8.6875 18.222656 8.613281 19.109375 8.40625 C 20.003906 8.195312 20.613281 7.789062 20.9375 7.1875 C 21.269531 6.59375 21.140625 5.707031 20.546875 4.53125 C 19.921875 3.269531 19.21875 2.050781 18.4375 0.875 C 16.488281 -2.03125 14.429688 -4.847656 12.265625 -7.578125 C 11.492188 -8.597656 10.734375 -9.617188 9.984375 -10.640625 C 8.710938 -12.335938 7.488281 -14.082031 6.3125 -15.875 C 5.207031 -17.507812 4.363281 -19.3125 3.78125 -21.28125 C 3.382812 -22.707031 3.300781 -24.242188 3.53125 -25.890625 C 3.957031 -28.597656 5.363281 -31.097656 7.75 -33.390625 C 10.394531 -35.953125 13.691406 -38.21875 17.640625 -40.1875 C 21.597656 -42.164062 25.960938 -43.851562 30.734375 -45.25 C 35.503906 -46.644531 40.457031 -47.773438 45.59375 -48.640625 C 50.738281 -49.515625 55.835938 -50.128906 60.890625 -50.484375 C 65.953125 -50.847656 70.722656 -50.972656 75.203125 -50.859375 C 79.679688 -50.742188 83.644531 -50.398438 87.09375 -49.828125 C 90.539062 -49.265625 93.257812 -48.484375 95.25 -47.484375 C 96.3125 -47.003906 97.222656 -46.335938 97.984375 -45.484375 Z M 97.984375 -45.484375 "/></g></g></g><g fill="#ffffff" fill-opacity="1"><g transform="translate(267.903551, 190.293196)"><g><path d="M 8.6875 -6.640625 C 7.875 -5.972656 6.984375 -5.359375 6.015625 -4.796875 C 5.054688 -4.242188 4.054688 -3.867188 3.015625 -3.671875 C 1.972656 -3.484375 1.242188 -3.554688 0.828125 -3.890625 C 0.421875 -4.222656 0.59375 -4.96875 1.34375 -6.125 C 2.1875 -7.320312 3.175781 -8.460938 4.3125 -9.546875 C 4.570312 -9.785156 4.875 -9.953125 5.21875 -10.046875 C 5.46875 -10.097656 5.65625 -10.054688 5.78125 -9.921875 C 5.90625 -9.785156 5.910156 -9.617188 5.796875 -9.421875 C 5.503906 -9.046875 5.191406 -8.664062 4.859375 -8.28125 C 4.523438 -7.90625 4.304688 -7.660156 4.203125 -7.546875 C 3.597656 -6.878906 3.085938 -6.175781 2.671875 -5.4375 C 2.515625 -5.019531 3.0625 -4.992188 4.3125 -5.359375 C 5.570312 -5.722656 6.914062 -6.394531 8.34375 -7.375 C 9.769531 -8.363281 10.382812 -8.65625 10.1875 -8.25 C 10 -7.84375 9.5 -7.304688 8.6875 -6.640625 Z M 7.84375 -11.921875 C 7.78125 -11.878906 7.65625 -11.828125 7.46875 -11.765625 C 7.289062 -11.710938 7.101562 -11.671875 6.90625 -11.640625 C 6.71875 -11.609375 6.585938 -11.632812 6.515625 -11.71875 C 6.441406 -11.8125 6.492188 -11.984375 6.671875 -12.234375 C 7.003906 -12.671875 7.320312 -13.054688 7.625 -13.390625 C 7.9375 -13.722656 8.304688 -14.085938 8.734375 -14.484375 C 8.992188 -14.660156 9.234375 -14.753906 9.453125 -14.765625 C 9.679688 -14.785156 9.847656 -14.726562 9.953125 -14.59375 C 10.054688 -14.46875 10.035156 -14.289062 9.890625 -14.0625 C 9.347656 -13.226562 8.664062 -12.515625 7.84375 -11.921875 Z M 7.84375 -11.921875 "/></g></g></g><g fill="#ffffff" fill-opacity="1"><g transform="translate(274.051602, 190.293196)"><g><path d="M 10.375 -7.515625 C 10.84375 -7.859375 11.203125 -8.050781 11.453125 -8.09375 C 11.703125 -8.144531 11.835938 -8.109375 11.859375 -7.984375 C 11.890625 -7.867188 11.785156 -7.710938 11.546875 -7.515625 C 10.210938 -6.398438 8.828125 -5.4375 7.390625 -4.625 C 5.953125 -3.820312 4.601562 -3.359375 3.34375 -3.234375 C 2.082031 -3.109375 1.585938 -3.769531 1.859375 -5.21875 C 2.191406 -6.65625 4.128906 -9.585938 7.671875 -14.015625 C 11.222656 -18.441406 14.078125 -22.066406 16.234375 -24.890625 C 16.410156 -25.140625 16.628906 -25.359375 16.890625 -25.546875 C 17.242188 -25.796875 17.566406 -25.851562 17.859375 -25.71875 C 17.953125 -25.664062 18.035156 -25.582031 18.109375 -25.46875 C 18.179688 -25.351562 18.144531 -25.148438 18 -24.859375 C 8.738281 -13.066406 4 -6.65625 3.78125 -5.625 C 3.5625 -4.59375 4.128906 -4.335938 5.484375 -4.859375 C 6.847656 -5.378906 7.945312 -5.910156 8.78125 -6.453125 C 9.625 -6.992188 10.15625 -7.347656 10.375 -7.515625 Z M 10.375 -7.515625 "/></g></g></g><g fill="#ffffff" fill-opacity="1"><g transform="translate(281.917962, 190.293196)"><g><path d="M 14.875 -13.265625 C 14.695312 -13.035156 14.503906 -12.816406 14.296875 -12.609375 C 11.578125 -9.835938 8.691406 -7.257812 5.640625 -4.875 C 5.222656 -4.519531 4.789062 -4.207031 4.34375 -3.9375 C 3.9375 -3.707031 3.535156 -3.546875 3.140625 -3.453125 C 2.035156 -3.273438 1.578125 -3.691406 1.765625 -4.703125 C 1.953125 -5.328125 2.179688 -5.953125 2.453125 -6.578125 C 2.554688 -6.859375 2.660156 -7.132812 2.765625 -7.40625 C 2.765625 -7.40625 2.78125 -7.40625 2.8125 -7.40625 C 2.882812 -7.59375 2.953125 -7.773438 3.015625 -7.953125 C 3.179688 -8.421875 3.347656 -8.882812 3.515625 -9.34375 C 3.609375 -9.59375 3.710938 -9.851562 3.828125 -10.125 C 4.148438 -10.695312 4.546875 -10.992188 5.015625 -11.015625 C 5.515625 -10.992188 5.664062 -10.640625 5.46875 -9.953125 C 5.394531 -9.753906 5.316406 -9.578125 5.234375 -9.421875 C 5.148438 -9.253906 5.082031 -9.101562 5.03125 -8.96875 C 4.613281 -7.945312 4.207031 -6.914062 3.8125 -5.875 C 3.726562 -5.644531 3.773438 -5.507812 3.953125 -5.46875 C 4.023438 -5.46875 4.09375 -5.484375 4.15625 -5.515625 C 4.226562 -5.546875 4.296875 -5.585938 4.359375 -5.640625 C 5.234375 -6.359375 6.09375 -7.070312 6.9375 -7.78125 C 7.269531 -8.070312 7.597656 -8.351562 7.921875 -8.625 C 8.296875 -8.945312 8.664062 -9.253906 9.03125 -9.546875 C 10.476562 -10.796875 11.925781 -12.035156 13.375 -13.265625 C 13.5625 -13.429688 13.75 -13.570312 13.9375 -13.6875 C 14.132812 -13.800781 14.347656 -13.859375 14.578125 -13.859375 C 14.753906 -13.835938 14.890625 -13.769531 14.984375 -13.65625 C 15.015625 -13.613281 15.015625 -13.550781 14.984375 -13.46875 C 14.960938 -13.394531 14.925781 -13.328125 14.875 -13.265625 Z M 14.875 -13.265625 "/></g></g></g><g fill="#ffffff" fill-opacity="1"><g transform="translate(290.304535, 190.293196)"><g><path d="M 14.359375 -8.03125 C 14.554688 -7.882812 14.453125 -7.539062 14.046875 -7 C 13.585938 -6.601562 13.125 -6.226562 12.65625 -5.875 C 12.1875 -5.53125 11.691406 -5.222656 11.171875 -4.953125 C 11.140625 -4.953125 11.125 -4.941406 11.125 -4.921875 C 10.78125 -4.734375 10.429688 -4.566406 10.078125 -4.421875 C 7.234375 -3.523438 6.144531 -4.054688 6.8125 -6.015625 C 5.46875 -5.140625 4.585938 -4.597656 4.171875 -4.390625 C 3.148438 -3.898438 2.171875 -3.679688 1.234375 -3.734375 C 0.535156 -3.773438 0.128906 -3.992188 0.015625 -4.390625 C -0.0976562 -4.785156 0.113281 -5.316406 0.65625 -5.984375 C 1.507812 -7.046875 2.515625 -7.992188 3.671875 -8.828125 C 5.003906 -9.753906 6.378906 -10.492188 7.796875 -11.046875 C 8.566406 -11.367188 9.300781 -11.492188 10 -11.421875 C 10.6875 -11.378906 10.96875 -10.976562 10.84375 -10.21875 C 10.820312 -9.988281 10.691406 -9.78125 10.453125 -9.59375 C 10.140625 -9.382812 9.847656 -9.335938 9.578125 -9.453125 C 9.554688 -9.453125 9.53125 -9.457031 9.5 -9.46875 C 9.46875 -9.476562 9.445312 -9.492188 9.4375 -9.515625 C 9.28125 -9.941406 9.035156 -10.117188 8.703125 -10.046875 C 8.378906 -9.984375 8 -9.84375 7.5625 -9.625 C 5.613281 -8.6875 3.929688 -7.367188 2.515625 -5.671875 C 2.441406 -5.597656 2.382812 -5.515625 2.34375 -5.421875 C 2.300781 -5.335938 2.300781 -5.269531 2.34375 -5.21875 C 2.507812 -5.15625 2.722656 -5.164062 2.984375 -5.25 C 3.253906 -5.34375 3.535156 -5.472656 3.828125 -5.640625 C 4.117188 -5.816406 4.367188 -5.960938 4.578125 -6.078125 C 4.617188 -6.109375 4.640625 -6.125 4.640625 -6.125 C 5.628906 -6.769531 6.613281 -7.429688 7.59375 -8.109375 C 8.050781 -8.453125 8.53125 -8.644531 9.03125 -8.6875 C 9.726562 -8.6875 9.898438 -8.375 9.546875 -7.75 C 9.398438 -7.519531 9.25 -7.289062 9.09375 -7.0625 C 8.457031 -6.0625 8.234375 -5.472656 8.421875 -5.296875 C 8.609375 -5.128906 8.992188 -5.128906 9.578125 -5.296875 C 10.160156 -5.472656 10.800781 -5.804688 11.5 -6.296875 C 12.195312 -6.785156 12.796875 -7.234375 13.296875 -7.640625 C 13.804688 -8.046875 14.160156 -8.175781 14.359375 -8.03125 Z M 14.359375 -8.03125 "/></g></g></g><g fill="#ffffff" fill-opacity="1"><g transform="translate(67.580866, 194.41301)"><g><path d="M 3.296875 -3 C 3.890625 -3 4.425781 -3.09375 4.90625 -3.28125 C 5.394531 -3.46875 5.78125 -3.753906 6.0625 -4.140625 C 6.351562 -4.535156 6.5 -5.023438 6.5 -5.609375 C 6.5 -6.472656 6.21875 -7.113281 5.65625 -7.53125 C 5.09375 -7.945312 4.347656 -8.15625 3.421875 -8.15625 L 1.078125 -8.15625 L 1.078125 0 L 2.234375 0 L 2.234375 -3 Z M 3.40625 -7.1875 C 4.03125 -7.1875 4.5 -7.0625 4.8125 -6.8125 C 5.132812 -6.570312 5.296875 -6.15625 5.296875 -5.5625 C 5.273438 -5.019531 5.085938 -4.613281 4.734375 -4.34375 C 4.390625 -4.082031 3.925781 -3.953125 3.34375 -3.953125 L 2.234375 -3.953125 L 2.234375 -7.1875 Z M 3.40625 -7.1875 "/></g></g></g><g fill="#ffffff" fill-opacity="1"><g transform="translate(77.060882, 194.41301)"><g><path d="M 0.625 -0.4375 C 0.78125 -0.300781 1.113281 -0.164062 1.625 -0.03125 C 2.132812 0.09375 2.566406 0.15625 2.921875 0.15625 C 3.535156 0.15625 4.0625 0.0664062 4.5 -0.109375 C 4.9375 -0.296875 5.269531 -0.554688 5.5 -0.890625 C 5.738281 -1.222656 5.859375 -1.609375 5.859375 -2.046875 C 5.859375 -2.597656 5.6875 -3.050781 5.34375 -3.40625 C 5.007812 -3.757812 4.476562 -4.097656 3.75 -4.421875 C 3.195312 -4.671875 2.78125 -4.875 2.5 -5.03125 C 2.226562 -5.195312 2.015625 -5.378906 1.859375 -5.578125 C 1.703125 -5.773438 1.625 -6.003906 1.625 -6.265625 C 1.625 -6.609375 1.769531 -6.867188 2.0625 -7.046875 C 2.363281 -7.234375 2.753906 -7.328125 3.234375 -7.328125 C 3.578125 -7.328125 3.875 -7.289062 4.125 -7.21875 C 4.382812 -7.144531 4.65625 -7.039062 4.9375 -6.90625 L 5.3125 -7.8125 C 5.007812 -7.96875 4.664062 -8.097656 4.28125 -8.203125 C 3.90625 -8.304688 3.53125 -8.359375 3.15625 -8.359375 C 2.613281 -8.359375 2.140625 -8.265625 1.734375 -8.078125 C 1.328125 -7.890625 1.015625 -7.632812 0.796875 -7.3125 C 0.585938 -7 0.484375 -6.640625 0.484375 -6.234375 C 0.484375 -5.835938 0.554688 -5.492188 0.703125 -5.203125 C 0.859375 -4.921875 1.085938 -4.675781 1.390625 -4.46875 C 1.691406 -4.257812 2.09375 -4.039062 2.59375 -3.8125 C 3.101562 -3.59375 3.5 -3.398438 3.78125 -3.234375 C 4.070312 -3.066406 4.296875 -2.882812 4.453125 -2.6875 C 4.609375 -2.5 4.6875 -2.273438 4.6875 -2.015625 C 4.6875 -1.648438 4.53125 -1.363281 4.21875 -1.15625 C 3.90625 -0.945312 3.46875 -0.84375 2.90625 -0.84375 C 2.570312 -0.84375 2.210938 -0.894531 1.828125 -1 C 1.453125 -1.101562 1.140625 -1.222656 0.890625 -1.359375 Z M 0.625 -0.4375 "/></g></g></g><g fill="#ffffff" fill-opacity="1"><g transform="translate(85.892889, 194.41301)"><g><path d="M 6.828125 -8.15625 L 5.609375 -8.15625 L 3.390625 -4.390625 L 1.234375 -8.359375 L 0.125 -7.953125 L 2.8125 -3.234375 L 2.8125 0 L 3.96875 0 L 3.984375 -3.25 Z M 6.828125 -8.15625 "/></g></g></g><g fill="#ffffff" fill-opacity="1"><g transform="translate(95.456906, 194.41301)"><g><path d="M 6.4375 -7.84375 C 6.164062 -8 5.820312 -8.117188 5.40625 -8.203125 C 4.988281 -8.285156 4.640625 -8.328125 4.359375 -8.328125 C 3.578125 -8.328125 2.890625 -8.140625 2.296875 -7.765625 C 1.710938 -7.398438 1.265625 -6.890625 0.953125 -6.234375 C 0.640625 -5.578125 0.484375 -4.84375 0.484375 -4.03125 C 0.484375 -3.25 0.628906 -2.539062 0.921875 -1.90625 C 1.210938 -1.269531 1.644531 -0.765625 2.21875 -0.390625 C 2.789062 -0.015625 3.476562 0.171875 4.28125 0.171875 C 4.625 0.171875 5.007812 0.125 5.4375 0.03125 C 5.863281 -0.0625 6.207031 -0.175781 6.46875 -0.3125 L 6.03125 -1.171875 C 5.507812 -0.929688 4.910156 -0.8125 4.234375 -0.8125 C 3.710938 -0.8125 3.257812 -0.957031 2.875 -1.25 C 2.488281 -1.539062 2.191406 -1.929688 1.984375 -2.421875 C 1.785156 -2.910156 1.6875 -3.453125 1.6875 -4.046875 C 1.6875 -4.679688 1.800781 -5.25 2.03125 -5.75 C 2.257812 -6.257812 2.578125 -6.648438 2.984375 -6.921875 C 3.390625 -7.203125 3.835938 -7.34375 4.328125 -7.34375 C 4.679688 -7.34375 4.96875 -7.316406 5.1875 -7.265625 C 5.414062 -7.222656 5.710938 -7.140625 6.078125 -7.015625 Z M 6.4375 -7.84375 "/></g></g></g><g fill="#ffffff" fill-opacity="1"><g transform="translate(104.780916, 194.41301)"><g><path d="M 5.859375 -8.15625 L 5.859375 -4.5625 L 2.234375 -4.5625 L 2.234375 -8.21875 L 1.078125 -8.15625 L 1.078125 0 L 2.234375 0 L 2.234375 -3.640625 L 5.859375 -3.640625 L 5.859375 0 L 7.015625 0 L 7.015625 -8.15625 Z M 5.859375 -8.15625 "/></g></g></g><g fill="#ffffff" fill-opacity="1"><g transform="translate(115.484935, 194.41301)"><g><path d="M 4.375 -8.359375 C 3.632812 -8.335938 2.96875 -8.140625 2.375 -7.765625 C 1.78125 -7.390625 1.316406 -6.875 0.984375 -6.21875 C 0.648438 -5.570312 0.484375 -4.847656 0.484375 -4.046875 C 0.484375 -3.234375 0.644531 -2.503906 0.96875 -1.859375 C 1.300781 -1.222656 1.757812 -0.722656 2.34375 -0.359375 C 2.9375 -0.00390625 3.601562 0.171875 4.34375 0.171875 C 5.09375 0.160156 5.765625 -0.03125 6.359375 -0.40625 C 6.960938 -0.78125 7.429688 -1.289062 7.765625 -1.9375 C 8.097656 -2.59375 8.265625 -3.320312 8.265625 -4.125 C 8.265625 -4.9375 8.097656 -5.660156 7.765625 -6.296875 C 7.429688 -6.941406 6.96875 -7.445312 6.375 -7.8125 C 5.789062 -8.175781 5.125 -8.359375 4.375 -8.359375 Z M 1.6875 -4.0625 C 1.6875 -4.6875 1.800781 -5.25 2.03125 -5.75 C 2.257812 -6.25 2.582031 -6.640625 3 -6.921875 C 3.414062 -7.210938 3.882812 -7.359375 4.40625 -7.359375 C 4.90625 -7.359375 5.351562 -7.21875 5.75 -6.9375 C 6.15625 -6.664062 6.472656 -6.28125 6.703125 -5.78125 C 6.929688 -5.289062 7.046875 -4.738281 7.046875 -4.125 C 7.046875 -3.5 6.925781 -2.929688 6.6875 -2.421875 C 6.457031 -1.921875 6.132812 -1.523438 5.71875 -1.234375 C 5.3125 -0.953125 4.847656 -0.8125 4.328125 -0.8125 C 3.828125 -0.8125 3.375 -0.945312 2.96875 -1.21875 C 2.5625 -1.5 2.242188 -1.882812 2.015625 -2.375 C 1.796875 -2.875 1.6875 -3.4375 1.6875 -4.0625 Z M 1.6875 -4.0625 "/></g></g></g><g fill="#ffffff" fill-opacity="1"><g transform="translate(126.848949, 194.41301)"><g><path d="M 2.234375 -8.15625 L 1.078125 -8.15625 L 1.078125 0 L 6.0625 0 L 5.921875 -0.90625 L 2.234375 -0.90625 Z M 2.234375 -8.15625 "/></g></g></g><g fill="#ffffff" fill-opacity="1"><g transform="translate(135.644963, 194.41301)"><g><path d="M 4.375 -8.359375 C 3.632812 -8.335938 2.96875 -8.140625 2.375 -7.765625 C 1.78125 -7.390625 1.316406 -6.875 0.984375 -6.21875 C 0.648438 -5.570312 0.484375 -4.847656 0.484375 -4.046875 C 0.484375 -3.234375 0.644531 -2.503906 0.96875 -1.859375 C 1.300781 -1.222656 1.757812 -0.722656 2.34375 -0.359375 C 2.9375 -0.00390625 3.601562 0.171875 4.34375 0.171875 C 5.09375 0.160156 5.765625 -0.03125 6.359375 -0.40625 C 6.960938 -0.78125 7.429688 -1.289062 7.765625 -1.9375 C 8.097656 -2.59375 8.265625 -3.320312 8.265625 -4.125 C 8.265625 -4.9375 8.097656 -5.660156 7.765625 -6.296875 C 7.429688 -6.941406 6.96875 -7.445312 6.375 -7.8125 C 5.789062 -8.175781 5.125 -8.359375 4.375 -8.359375 Z M 1.6875 -4.0625 C 1.6875 -4.6875 1.800781 -5.25 2.03125 -5.75 C 2.257812 -6.25 2.582031 -6.640625 3 -6.921875 C 3.414062 -7.210938 3.882812 -7.359375 4.40625 -7.359375 C 4.90625 -7.359375 5.351562 -7.21875 5.75 -6.9375 C 6.15625 -6.664062 6.472656 -6.28125 6.703125 -5.78125 C 6.929688 -5.289062 7.046875 -4.738281 7.046875 -4.125 C 7.046875 -3.5 6.925781 -2.929688 6.6875 -2.421875 C 6.457031 -1.921875 6.132812 -1.523438 5.71875 -1.234375 C 5.3125 -0.953125 4.847656 -0.8125 4.328125 -0.8125 C 3.828125 -0.8125 3.375 -0.945312 2.96875 -1.21875 C 2.5625 -1.5 2.242188 -1.882812 2.015625 -2.375 C 1.796875 -2.875 1.6875 -3.4375 1.6875 -4.0625 Z M 1.6875 -4.0625 "/></g></g></g><g fill="#ffffff" fill-opacity="1"><g transform="translate(147.008974, 194.41301)"><g><path d="M 5.875 -1.015625 C 5.425781 -0.878906 4.976562 -0.8125 4.53125 -0.8125 C 3.988281 -0.8125 3.5 -0.941406 3.0625 -1.203125 C 2.632812 -1.472656 2.296875 -1.851562 2.046875 -2.34375 C 1.804688 -2.832031 1.6875 -3.398438 1.6875 -4.046875 C 1.6875 -4.734375 1.820312 -5.328125 2.09375 -5.828125 C 2.375 -6.328125 2.742188 -6.703125 3.203125 -6.953125 C 3.671875 -7.210938 4.175781 -7.34375 4.71875 -7.34375 C 5.070312 -7.34375 5.359375 -7.316406 5.578125 -7.265625 C 5.796875 -7.222656 6.082031 -7.140625 6.4375 -7.015625 L 6.796875 -7.84375 C 6.535156 -8 6.191406 -8.117188 5.765625 -8.203125 C 5.347656 -8.285156 4.988281 -8.328125 4.6875 -8.328125 C 3.894531 -8.328125 3.175781 -8.144531 2.53125 -7.78125 C 1.894531 -7.414062 1.394531 -6.90625 1.03125 -6.25 C 0.664062 -5.601562 0.484375 -4.863281 0.484375 -4.03125 C 0.484375 -3.238281 0.648438 -2.523438 0.984375 -1.890625 C 1.316406 -1.253906 1.789062 -0.75 2.40625 -0.375 C 3.03125 -0.0078125 3.75 0.171875 4.5625 0.171875 C 4.988281 0.171875 5.414062 0.113281 5.84375 0 C 6.269531 -0.101562 6.628906 -0.238281 6.921875 -0.40625 L 6.9375 -4.28125 L 4.1875 -4.28125 L 4.09375 -3.40625 L 5.875 -3.40625 Z M 5.875 -1.015625 "/></g></g></g><g fill="#ffffff" fill-opacity="1"><g transform="translate(157.160988, 194.41301)"><g><path d="M 1.078125 -8.15625 L 1.078125 0 L 2.234375 0 L 2.234375 -8.15625 Z M 1.078125 -8.15625 "/></g></g></g><g fill="#ffffff" fill-opacity="1"><g transform="translate(163.088998, 194.41301)"><g><path d="M 0.625 -0.4375 C 0.78125 -0.300781 1.113281 -0.164062 1.625 -0.03125 C 2.132812 0.09375 2.566406 0.15625 2.921875 0.15625 C 3.535156 0.15625 4.0625 0.0664062 4.5 -0.109375 C 4.9375 -0.296875 5.269531 -0.554688 5.5 -0.890625 C 5.738281 -1.222656 5.859375 -1.609375 5.859375 -2.046875 C 5.859375 -2.597656 5.6875 -3.050781 5.34375 -3.40625 C 5.007812 -3.757812 4.476562 -4.097656 3.75 -4.421875 C 3.195312 -4.671875 2.78125 -4.875 2.5 -5.03125 C 2.226562 -5.195312 2.015625 -5.378906 1.859375 -5.578125 C 1.703125 -5.773438 1.625 -6.003906 1.625 -6.265625 C 1.625 -6.609375 1.769531 -6.867188 2.0625 -7.046875 C 2.363281 -7.234375 2.753906 -7.328125 3.234375 -7.328125 C 3.578125 -7.328125 3.875 -7.289062 4.125 -7.21875 C 4.382812 -7.144531 4.65625 -7.039062 4.9375 -6.90625 L 5.3125 -7.8125 C 5.007812 -7.96875 4.664062 -8.097656 4.28125 -8.203125 C 3.90625 -8.304688 3.53125 -8.359375 3.15625 -8.359375 C 2.613281 -8.359375 2.140625 -8.265625 1.734375 -8.078125 C 1.328125 -7.890625 1.015625 -7.632812 0.796875 -7.3125 C 0.585938 -7 0.484375 -6.640625 0.484375 -6.234375 C 0.484375 -5.835938 0.554688 -5.492188 0.703125 -5.203125 C 0.859375 -4.921875 1.085938 -4.675781 1.390625 -4.46875 C 1.691406 -4.257812 2.09375 -4.039062 2.59375 -3.8125 C 3.101562 -3.59375 3.5 -3.398438 3.78125 -3.234375 C 4.070312 -3.066406 4.296875 -2.882812 4.453125 -2.6875 C 4.609375 -2.5 4.6875 -2.273438 4.6875 -2.015625 C 4.6875 -1.648438 4.53125 -1.363281 4.21875 -1.15625 C 3.90625 -0.945312 3.46875 -0.84375 2.90625 -0.84375 C 2.570312 -0.84375 2.210938 -0.894531 1.828125 -1 C 1.453125 -1.101562 1.140625 -1.222656 0.890625 -1.359375 Z M 0.625 -0.4375 "/></g></g></g><g fill="#ffffff" fill-opacity="1"><g transform="translate(171.921004, 194.41301)"><g><path d="M 0.125 -7.25 L 2.765625 -7.25 L 2.765625 0 L 3.9375 0 L 3.9375 -7.25 L 6.75 -7.25 L 6.59375 -8.15625 L 0.125 -8.15625 Z M 0.125 -7.25 "/></g></g></g><path stroke-linecap="butt" transform="matrix(0.000000000000000046, -0.748858, 0.75, 0.000000000000000046, 55.017409, 249.093735)" fill="none" stroke-linejoin="miter" d="M -0.0000202404 0.997622 L 164.265641 0.997622 " stroke="#ffffff" stroke-width="2" stroke-opacity="1" stroke-miterlimit="4"/><path stroke-linecap="butt" transform="matrix(-0.748858, -0.00087478, 0.000876114, -0.749999, 167.57762, 173.115149)" fill="none" stroke-linejoin="miter" d="M 0.000498348 1.002491 L 164.266265 0.998396 " stroke="#ffffff" stroke-width="2" stroke-opacity="1" stroke-miterlimit="4"/></svg>