<svg xmlns="http://www.w3.org/2000/svg" xmlns:xlink="http://www.w3.org/1999/xlink" width="500" zoomAndPan="magnify" viewBox="0 0 375 374.999991" height="500" preserveAspectRatio="xMidYMid meet" version="1.0"><defs><g/></defs><g fill="#000000" fill-opacity="1"><g transform="translate(63.63884, 160.436416)"><g><path d="M 1.265625 -0.59375 L 1.265625 0 L 7.796875 0 L 7.796875 -0.59375 L 4.828125 -0.59375 L 4.828125 -23.734375 L 13.109375 0 L 13.59375 0 L 21.875 -23.875 L 21.875 -0.59375 L 18.90625 -0.59375 L 18.90625 0 L 28.453125 0 L 28.453125 -0.59375 L 25.484375 -0.59375 L 25.484375 -24.359375 L 28.453125 -24.359375 L 28.453125 -24.953125 L 21.578125 -24.953125 L 14.96875 -5.875 L 8.140625 -24.953125 L 1.265625 -24.953125 L 1.265625 -24.359375 L 4.234375 -24.359375 L 4.234375 -0.59375 Z M 1.265625 -0.59375 "/></g></g></g><g fill="#000000" fill-opacity="1"><g transform="translate(106.051379, 160.436416)"><g><path d="M 8.015625 -12.84375 L 10.953125 -12.84375 C 11.503906 -12.84375 11.9375 -12.765625 12.25 -12.609375 C 12.570312 -12.453125 12.828125 -12.222656 13.015625 -11.921875 C 13.203125 -11.617188 13.34375 -11.257812 13.4375 -10.84375 C 13.539062 -10.425781 13.640625 -9.957031 13.734375 -9.4375 C 13.816406 -9.082031 13.921875 -8.90625 14.046875 -8.90625 C 14.191406 -8.90625 14.265625 -9.066406 14.265625 -9.390625 L 14.265625 -16.9375 C 14.265625 -17.226562 14.191406 -17.375 14.046875 -17.375 C 13.921875 -17.375 13.816406 -17.203125 13.734375 -16.859375 C 13.640625 -16.335938 13.539062 -15.863281 13.4375 -15.4375 C 13.34375 -15.019531 13.203125 -14.660156 13.015625 -14.359375 C 12.828125 -14.066406 12.570312 -13.835938 12.25 -13.671875 C 11.9375 -13.515625 11.503906 -13.4375 10.953125 -13.4375 L 8.015625 -13.4375 L 8.015625 -24.359375 L 13.671875 -24.359375 C 14.515625 -24.359375 15.21875 -24.15625 15.78125 -23.75 C 16.351562 -23.34375 16.8125 -22.832031 17.15625 -22.21875 C 17.5 -21.613281 17.75 -20.972656 17.90625 -20.296875 C 18.070312 -19.617188 18.171875 -19.003906 18.203125 -18.453125 C 18.203125 -18.109375 18.300781 -17.9375 18.5 -17.9375 C 18.664062 -17.9375 18.75 -18.097656 18.75 -18.421875 L 18.75 -24.0625 C 18.75 -24.65625 18.441406 -24.953125 17.828125 -24.953125 L 1.21875 -24.953125 L 1.21875 -24.359375 L 4.421875 -24.359375 L 4.421875 -0.59375 L 1.265625 -0.59375 L 1.265625 0 L 18.71875 0 C 19.4375 0 19.796875 -0.394531 19.796875 -1.1875 L 19.796875 -6.765625 C 19.796875 -7.359375 19.695312 -7.65625 19.5 -7.65625 C 19.320312 -7.65625 19.1875 -7.394531 19.09375 -6.875 C 18.894531 -5.925781 18.679688 -5.066406 18.453125 -4.296875 C 18.234375 -3.535156 17.9375 -2.875 17.5625 -2.3125 C 17.195312 -1.757812 16.726562 -1.332031 16.15625 -1.03125 C 15.582031 -0.738281 14.863281 -0.59375 14 -0.59375 L 8.015625 -0.59375 Z M 8.015625 -12.84375 "/></g></g></g><g fill="#000000" fill-opacity="1"><g transform="translate(140.182413, 160.436416)"><g><path d="M 1 -0.59375 L 1 0 L 7.984375 0 L 7.984375 -0.59375 L 4.796875 -0.59375 L 4.796875 -23.28125 L 19.171875 0.296875 L 20.421875 0.296875 L 20.421875 -24.359375 L 23.625 -24.359375 L 23.625 -24.953125 L 16.640625 -24.953125 L 16.640625 -24.359375 L 19.828125 -24.359375 L 19.828125 -6.125 L 8.3125 -24.953125 L 1 -24.953125 L 1 -24.359375 L 4.203125 -24.359375 L 4.203125 -0.59375 Z M 1 -0.59375 "/></g></g></g><g fill="#000000" fill-opacity="1"><g transform="translate(177.395805, 160.436416)"><g><path d="M 1.265625 -0.96875 L 1.265625 0 L 17.9375 0 L 17.9375 -7.46875 L 17.34375 -7.46875 C 17.289062 -6.207031 17.128906 -5.132812 16.859375 -4.25 C 16.585938 -3.375 16.21875 -2.671875 15.75 -2.140625 C 15.28125 -1.609375 14.71875 -1.21875 14.0625 -0.96875 C 13.40625 -0.71875 12.65625 -0.59375 11.8125 -0.59375 L 4.71875 -0.59375 L 17.671875 -24.0625 L 17.671875 -24.953125 L 1.453125 -24.953125 L 1.453125 -18.5 L 1.96875 -18.5 C 1.988281 -19.632812 2.140625 -20.578125 2.421875 -21.328125 C 2.710938 -22.085938 3.085938 -22.691406 3.546875 -23.140625 C 4.003906 -23.585938 4.515625 -23.898438 5.078125 -24.078125 C 5.648438 -24.265625 6.257812 -24.359375 6.90625 -24.359375 L 14.078125 -24.359375 Z M 1.265625 -0.96875 "/></g></g></g><g fill="#000000" fill-opacity="1"><g transform="translate(209.112943, 160.436416)"><g><path d="M 11.59375 -24.359375 L 11.59375 -24.953125 L 1.59375 -24.953125 L 1.59375 -24.359375 L 4.796875 -24.359375 L 4.796875 -0.59375 L 1.59375 -0.59375 L 1.59375 0 L 11.59375 0 L 11.59375 -0.59375 L 8.390625 -0.59375 L 8.390625 -24.359375 Z M 11.59375 -24.359375 "/></g></g></g><g fill="#000000" fill-opacity="1"><g transform="translate(211.561601, 190.293211)"><g><path d="M 103 -41.25 C 102.695312 -41.1875 102.453125 -41.191406 102.265625 -41.265625 C 102.078125 -41.347656 101.910156 -41.445312 101.765625 -41.5625 C 101.679688 -41.601562 101.617188 -41.648438 101.578125 -41.703125 C 99.421875 -43.148438 96.972656 -44.238281 94.234375 -44.96875 C 87.097656 -46.84375 78.851562 -46.066406 69.5 -42.640625 C 66.070312 -41.390625 62.679688 -39.882812 59.328125 -38.125 C 55.972656 -36.375 52.625 -34.457031 49.28125 -32.375 C 43.894531 -29 38.71875 -25.304688 33.75 -21.296875 C 28.789062 -17.285156 24.003906 -13.003906 19.390625 -8.453125 C 17.722656 -6.828125 16.097656 -5.1875 14.515625 -3.53125 C 14.472656 -3.476562 14.425781 -3.429688 14.375 -3.390625 C 13.1875 -2.210938 12.113281 -0.960938 11.15625 0.359375 C 10.695312 0.984375 10.191406 1.570312 9.640625 2.125 C 8.953125 2.863281 8.273438 3.144531 7.609375 2.96875 C 7.222656 2.875 7.144531 2.601562 7.375 2.15625 C 7.53125 1.832031 7.742188 1.523438 8.015625 1.234375 C 9.367188 -0.328125 10.640625 -1.898438 11.828125 -3.484375 C 13.015625 -5.078125 14.164062 -6.6875 15.28125 -8.3125 C 15.5625 -8.726562 15.847656 -9.128906 16.140625 -9.515625 C 22.671875 -18.785156 29 -28.117188 35.125 -37.515625 C 35.25 -37.710938 35.359375 -37.914062 35.453125 -38.125 C 35.492188 -38.21875 35.546875 -38.320312 35.609375 -38.4375 C 35.347656 -38.414062 35.117188 -38.332031 34.921875 -38.1875 C 34.734375 -38.050781 34.5625 -37.894531 34.40625 -37.71875 C 34.351562 -37.644531 34.289062 -37.578125 34.21875 -37.515625 C 33.976562 -37.285156 33.742188 -37.039062 33.515625 -36.78125 C 31.109375 -34.382812 28.703125 -31.96875 26.296875 -29.53125 C 22.492188 -25.644531 18.695312 -21.757812 14.90625 -17.875 C 9.414062 -12.257812 3.898438 -6.632812 -1.640625 -1 C -2.859375 0.25 -4.109375 1.460938 -5.390625 2.640625 C -5.710938 2.953125 -6.015625 3.242188 -6.296875 3.515625 C -6.816406 4.046875 -7.382812 4.375 -8 4.5 C -8.175781 4.519531 -8.328125 4.507812 -8.453125 4.46875 C -8.578125 4.425781 -8.632812 4.335938 -8.625 4.203125 C -8.644531 4.109375 -8.609375 4 -8.515625 3.875 C -8.421875 3.75 -8.320312 3.640625 -8.21875 3.546875 C 5.070312 -10.066406 18.367188 -23.671875 31.671875 -37.265625 C 32.878906 -38.472656 34.117188 -39.65625 35.390625 -40.8125 C 35.671875 -41.0625 35.9375 -41.3125 36.1875 -41.5625 C 36.9375 -42.28125 37.742188 -42.742188 38.609375 -42.953125 C 39.117188 -43.046875 39.46875 -42.976562 39.65625 -42.75 C 39.851562 -42.519531 39.847656 -42.144531 39.640625 -41.625 C 38.960938 -40.125 38.125 -38.640625 37.125 -37.171875 C 31.945312 -29.253906 26.632812 -21.394531 21.1875 -13.59375 C 21.125 -13.488281 21.0625 -13.398438 21 -13.328125 C 20.820312 -13.097656 20.671875 -12.867188 20.546875 -12.640625 C 20.421875 -12.410156 20.375 -12.160156 20.40625 -11.890625 C 20.695312 -12.140625 20.976562 -12.378906 21.25 -12.609375 C 21.8125 -13.085938 22.359375 -13.570312 22.890625 -14.0625 C 29.128906 -19.894531 35.742188 -25.179688 42.734375 -29.921875 C 46.742188 -32.640625 50.796875 -35.148438 54.890625 -37.453125 C 58.984375 -39.753906 63.117188 -41.722656 67.296875 -43.359375 C 75.898438 -46.671875 83.773438 -47.898438 90.921875 -47.046875 C 95.421875 -46.472656 99.316406 -45.109375 102.609375 -42.953125 C 102.679688 -42.910156 102.769531 -42.863281 102.875 -42.8125 C 103.050781 -42.71875 103.207031 -42.613281 103.34375 -42.5 C 103.488281 -42.382812 103.578125 -42.207031 103.609375 -41.96875 C 103.617188 -41.925781 103.609375 -41.863281 103.578125 -41.78125 C 103.546875 -41.707031 103.507812 -41.632812 103.46875 -41.5625 C 103.394531 -41.488281 103.316406 -41.421875 103.234375 -41.359375 C 103.148438 -41.304688 103.070312 -41.269531 103 -41.25 Z M 103 -41.25 "/></g></g></g><g fill="#000000" fill-opacity="1"><g transform="translate(234.419743, 190.293211)"><g><path d="M 16.984375 -8.453125 C 17.085938 -8.472656 17.1875 -8.472656 17.28125 -8.453125 C 17.375 -8.429688 17.4375 -8.382812 17.46875 -8.3125 C 17.488281 -8.195312 17.441406 -8.078125 17.328125 -7.953125 C 17.222656 -7.835938 17.085938 -7.75 16.921875 -7.6875 C 15.816406 -7.226562 14.691406 -6.75 13.546875 -6.25 C 12.203125 -5.675781 10.859375 -5.101562 9.515625 -4.53125 C 9.328125 -4.457031 9.140625 -4.375 8.953125 -4.28125 C 8.648438 -4.144531 8.347656 -4.019531 8.046875 -3.90625 C 7.367188 -3.625 6.832031 -3.179688 6.4375 -2.578125 C 5.40625 -1.148438 4.351562 0.265625 3.28125 1.671875 C 1.882812 3.554688 0.335938 5.347656 -1.359375 7.046875 C -2.316406 8.023438 -3.351562 8.890625 -4.46875 9.640625 C -5.84375 10.597656 -7.234375 11.203125 -8.640625 11.453125 C -10.972656 11.898438 -13.015625 11.757812 -14.765625 11.03125 C -15.492188 10.738281 -16.035156 10.265625 -16.390625 9.609375 C -16.890625 8.742188 -16.585938 7.8125 -15.484375 6.8125 C -15.003906 6.382812 -14.5 5.988281 -13.96875 5.625 C -12.78125 4.8125 -11.550781 4.085938 -10.28125 3.453125 C -5.675781 1.066406 -1.046875 -1.128906 3.609375 -3.140625 C 3.628906 -3.140625 3.640625 -3.140625 3.640625 -3.140625 C 4.128906 -3.347656 4.617188 -3.566406 5.109375 -3.796875 C 5.191406 -3.847656 5.320312 -3.957031 5.5 -4.125 C 5.675781 -4.300781 5.820312 -4.476562 5.9375 -4.65625 C 6.0625 -4.832031 6.09375 -4.957031 6.03125 -5.03125 C 5.96875 -5.113281 5.738281 -5.078125 5.34375 -4.921875 C 5.1875 -4.867188 5.039062 -4.8125 4.90625 -4.75 C 4.53125 -4.601562 4.171875 -4.46875 3.828125 -4.34375 C 1.890625 -3.914062 1.242188 -4.613281 1.890625 -6.4375 C 2.328125 -7.53125 3.015625 -8.515625 3.953125 -9.390625 C 4.890625 -10.265625 5.925781 -10.953125 7.0625 -11.453125 C 8.207031 -11.953125 9.316406 -12.144531 10.390625 -12.03125 C 10.503906 -12.03125 10.613281 -12.015625 10.71875 -11.984375 C 11 -11.941406 11.296875 -11.921875 11.609375 -11.921875 C 11.921875 -11.921875 12.265625 -11.988281 12.640625 -12.125 C 13.035156 -12.257812 13.28125 -12.21875 13.375 -12 C 13.476562 -11.789062 13.40625 -11.507812 13.15625 -11.15625 C 12.613281 -10.507812 12.070312 -9.847656 11.53125 -9.171875 C 11.175781 -8.765625 10.820312 -8.335938 10.46875 -7.890625 C 10.09375 -7.429688 9.71875 -6.960938 9.34375 -6.484375 C 8.832031 -5.847656 8.671875 -5.515625 8.859375 -5.484375 C 9.046875 -5.453125 9.425781 -5.5625 10 -5.8125 C 10.070312 -5.832031 10.148438 -5.851562 10.234375 -5.875 C 11.265625 -6.300781 12.300781 -6.71875 13.34375 -7.125 C 14.070312 -7.40625 14.804688 -7.691406 15.546875 -7.984375 C 16.023438 -8.179688 16.503906 -8.335938 16.984375 -8.453125 Z M 2.71875 0.015625 C 3.375 -0.910156 3.726562 -1.515625 3.78125 -1.796875 C 3.84375 -2.085938 3.664062 -2.164062 3.25 -2.03125 C 2.84375 -1.894531 2.285156 -1.644531 1.578125 -1.28125 C 1.128906 -1.050781 0.640625 -0.816406 0.109375 -0.578125 C -3.066406 0.859375 -6.210938 2.394531 -9.328125 4.03125 C -10.679688 4.6875 -11.960938 5.476562 -13.171875 6.40625 C -14.453125 7.382812 -14.742188 8.257812 -14.046875 9.03125 C -13.628906 9.488281 -13.097656 9.8125 -12.453125 10 C -11.804688 10.1875 -11.0625 10.28125 -10.21875 10.28125 C -9.25 10.351562 -8.253906 10.164062 -7.234375 9.71875 C -6.222656 9.28125 -5.195312 8.617188 -4.15625 7.734375 C -3.519531 7.160156 -2.882812 6.5625 -2.25 5.9375 C -0.414062 4.050781 1.238281 2.078125 2.71875 0.015625 Z M 3.6875 -5.5625 C 3.914062 -5.445312 4.347656 -5.546875 4.984375 -5.859375 C 5.617188 -6.179688 6.3125 -6.613281 7.0625 -7.15625 C 7.820312 -7.707031 8.460938 -8.269531 8.984375 -8.84375 C 9.515625 -9.425781 9.769531 -9.921875 9.75 -10.328125 C 9.75 -10.441406 9.722656 -10.546875 9.671875 -10.640625 C 9.578125 -10.835938 9.425781 -10.929688 9.21875 -10.921875 C 9.007812 -10.910156 8.78125 -10.875 8.53125 -10.8125 C 7.644531 -10.507812 6.773438 -9.988281 5.921875 -9.25 C 5.066406 -8.507812 4.410156 -7.773438 3.953125 -7.046875 C 3.492188 -6.316406 3.40625 -5.820312 3.6875 -5.5625 Z M 3.6875 -5.5625 "/></g></g></g><g fill="#000000" fill-opacity="1"><g transform="translate(247.8824, 190.293211)"><g><path d="M 1.40625 -2.796875 C 0.40625 -2.796875 0.09375 -3.3125 0.46875 -4.34375 C 0.9375 -5.613281 2.582031 -7.859375 5.40625 -11.078125 C 5.519531 -11.210938 5.660156 -11.28125 5.828125 -11.28125 C 6.492188 -11.28125 6.726562 -11.019531 6.53125 -10.5 C 6.46875 -10.3125 6.320312 -10.078125 6.09375 -9.796875 C 6.03125 -9.722656 4.976562 -8.335938 2.9375 -5.640625 C 2.601562 -5.203125 2.398438 -4.878906 2.328125 -4.671875 C 2.242188 -4.429688 2.304688 -4.3125 2.515625 -4.3125 C 3.285156 -4.3125 5.992188 -6.222656 10.640625 -10.046875 C 11.242188 -10.554688 11.753906 -10.8125 12.171875 -10.8125 C 12.765625 -10.8125 12.976562 -10.59375 12.8125 -10.15625 C 12.757812 -9.988281 12.34375 -9.351562 11.5625 -8.25 C 10.519531 -6.738281 9.957031 -5.867188 9.875 -5.640625 C 9.738281 -5.296875 9.789062 -5.125 10.03125 -5.125 C 10.601562 -5.125 12.664062 -6.15625 16.21875 -8.21875 C 16.414062 -8.351562 16.570312 -8.421875 16.6875 -8.421875 C 16.957031 -8.421875 17.007812 -8.195312 16.84375 -7.75 C 16.800781 -7.632812 16.734375 -7.539062 16.640625 -7.46875 C 14.691406 -6.195312 13.082031 -5.234375 11.8125 -4.578125 C 10.632812 -3.960938 9.675781 -3.65625 8.9375 -3.65625 L 8.71875 -3.65625 C 7.71875 -3.882812 7.484375 -4.726562 8.015625 -6.1875 C 6.492188 -5.175781 5.238281 -4.359375 4.25 -3.734375 C 3.257812 -3.109375 2.3125 -2.796875 1.40625 -2.796875 Z M 1.40625 -2.796875 "/></g></g></g><g fill="#000000" fill-opacity="1"><g transform="translate(260.840602, 190.293211)"><g><path d="M 17.1875 -25.03125 C 17.269531 -25.113281 17.40625 -25.179688 17.59375 -25.234375 C 17.789062 -25.296875 17.984375 -25.335938 18.171875 -25.359375 C 18.367188 -25.390625 18.53125 -25.382812 18.65625 -25.34375 C 18.78125 -25.3125 18.8125 -25.25 18.75 -25.15625 C 18.457031 -24.675781 18.113281 -24.203125 17.71875 -23.734375 C 17.675781 -23.671875 17.613281 -23.59375 17.53125 -23.5 C 15.914062 -21.476562 14.296875 -19.476562 12.671875 -17.5 C 12.429688 -17.207031 12.203125 -16.914062 11.984375 -16.625 C 11.410156 -15.957031 10.707031 -15.140625 9.875 -14.171875 C 8.96875 -13.148438 8.160156 -12.210938 7.453125 -11.359375 C 7.992188 -11.804688 8.578125 -12.128906 9.203125 -12.328125 C 9.835938 -12.535156 10.300781 -12.640625 10.59375 -12.640625 C 11.695312 -12.617188 12.113281 -12.066406 11.84375 -10.984375 C 11.5625 -9.753906 10.878906 -8.503906 9.796875 -7.234375 C 8.722656 -5.960938 7.523438 -4.921875 6.203125 -4.109375 C 5.171875 -3.628906 4.273438 -3.414062 3.515625 -3.46875 C 2.765625 -3.53125 2.21875 -3.910156 1.875 -4.609375 C 1.800781 -4.609375 1.710938 -4.570312 1.609375 -4.5 C 1.515625 -4.425781 1.398438 -4.34375 1.265625 -4.25 C 1.109375 -4.113281 0.941406 -4.007812 0.765625 -3.9375 C 0.660156 -3.894531 0.554688 -3.882812 0.453125 -3.90625 C 0.359375 -3.925781 0.285156 -3.957031 0.234375 -4 C 0.078125 -4.1875 0.0859375 -4.421875 0.265625 -4.703125 C 2.003906 -7.015625 3.921875 -9.421875 6.015625 -11.921875 C 8.117188 -14.421875 10.203125 -16.859375 12.265625 -19.234375 C 13.160156 -20.296875 14.03125 -21.320312 14.875 -22.3125 C 15.226562 -22.707031 15.570312 -23.113281 15.90625 -23.53125 C 16.3125 -24.019531 16.738281 -24.519531 17.1875 -25.03125 Z M 8.015625 -10.734375 C 7.003906 -10.160156 6.050781 -9.457031 5.15625 -8.625 C 4.257812 -7.789062 3.726562 -6.910156 3.5625 -5.984375 C 3.457031 -5.453125 3.535156 -5.078125 3.796875 -4.859375 C 4.054688 -4.640625 4.492188 -4.71875 5.109375 -5.09375 C 5.710938 -5.519531 6.367188 -6.054688 7.078125 -6.703125 C 7.785156 -7.359375 8.410156 -8.054688 8.953125 -8.796875 C 9.421875 -9.441406 9.765625 -10.003906 9.984375 -10.484375 C 10.210938 -10.972656 10.191406 -11.269531 9.921875 -11.375 C 9.648438 -11.476562 9.015625 -11.265625 8.015625 -10.734375 Z M 8.015625 -10.734375 "/></g></g></g><g fill="#000000" fill-opacity="1"><g transform="translate(269.573988, 190.293211)"><g><path d="M 14.359375 -8.03125 C 14.554688 -7.882812 14.453125 -7.539062 14.046875 -7 C 13.585938 -6.601562 13.125 -6.226562 12.65625 -5.875 C 12.1875 -5.53125 11.691406 -5.222656 11.171875 -4.953125 C 11.140625 -4.953125 11.125 -4.941406 11.125 -4.921875 C 10.78125 -4.734375 10.429688 -4.566406 10.078125 -4.421875 C 7.234375 -3.523438 6.144531 -4.054688 6.8125 -6.015625 C 5.46875 -5.140625 4.585938 -4.597656 4.171875 -4.390625 C 3.148438 -3.898438 2.171875 -3.679688 1.234375 -3.734375 C 0.535156 -3.773438 0.128906 -3.992188 0.015625 -4.390625 C -0.0976562 -4.785156 0.113281 -5.316406 0.65625 -5.984375 C 1.507812 -7.046875 2.515625 -7.992188 3.671875 -8.828125 C 5.003906 -9.753906 6.378906 -10.492188 7.796875 -11.046875 C 8.566406 -11.367188 9.300781 -11.492188 10 -11.421875 C 10.6875 -11.378906 10.96875 -10.976562 10.84375 -10.21875 C 10.820312 -9.988281 10.691406 -9.78125 10.453125 -9.59375 C 10.140625 -9.382812 9.847656 -9.335938 9.578125 -9.453125 C 9.554688 -9.453125 9.53125 -9.457031 9.5 -9.46875 C 9.46875 -9.476562 9.445312 -9.492188 9.4375 -9.515625 C 9.28125 -9.941406 9.035156 -10.117188 8.703125 -10.046875 C 8.378906 -9.984375 8 -9.84375 7.5625 -9.625 C 5.613281 -8.6875 3.929688 -7.367188 2.515625 -5.671875 C 2.441406 -5.597656 2.382812 -5.515625 2.34375 -5.421875 C 2.300781 -5.335938 2.300781 -5.269531 2.34375 -5.21875 C 2.507812 -5.15625 2.722656 -5.164062 2.984375 -5.25 C 3.253906 -5.34375 3.535156 -5.472656 3.828125 -5.640625 C 4.117188 -5.816406 4.367188 -5.960938 4.578125 -6.078125 C 4.617188 -6.109375 4.640625 -6.125 4.640625 -6.125 C 5.628906 -6.769531 6.613281 -7.429688 7.59375 -8.109375 C 8.050781 -8.453125 8.53125 -8.644531 9.03125 -8.6875 C 9.726562 -8.6875 9.898438 -8.375 9.546875 -7.75 C 9.398438 -7.519531 9.25 -7.289062 9.09375 -7.0625 C 8.457031 -6.0625 8.234375 -5.472656 8.421875 -5.296875 C 8.609375 -5.128906 8.992188 -5.128906 9.578125 -5.296875 C 10.160156 -5.472656 10.800781 -5.804688 11.5 -6.296875 C 12.195312 -6.785156 12.796875 -7.234375 13.296875 -7.640625 C 13.804688 -8.046875 14.160156 -8.175781 14.359375 -8.03125 Z M 14.359375 -8.03125 "/></g></g></g><g fill="#000000" fill-opacity="1"><g transform="translate(280.025682, 190.293211)"><g><path d="M 15.359375 -7.859375 C 15.441406 -7.648438 15.085938 -7.265625 14.296875 -6.703125 C 13.503906 -6.148438 12.707031 -5.6875 11.90625 -5.3125 C 11.113281 -4.9375 10.207031 -4.554688 9.1875 -4.171875 C 8.53125 -3.921875 7.890625 -3.835938 7.265625 -3.921875 C 6.648438 -4.003906 6.46875 -4.394531 6.71875 -5.09375 C 6.96875 -5.800781 7.378906 -6.503906 7.953125 -7.203125 C 8.546875 -7.921875 8.753906 -8.289062 8.578125 -8.3125 C 8.410156 -8.332031 7.96875 -8.15625 7.25 -7.78125 C 5.382812 -6.800781 3.578125 -5.671875 1.828125 -4.390625 C 1.328125 -3.972656 0.800781 -3.742188 0.25 -3.703125 C -0.0195312 -3.703125 -0.195312 -3.785156 -0.28125 -3.953125 C -0.375 -4.128906 -0.332031 -4.320312 -0.15625 -4.53125 C 1.394531 -6.238281 2.953125 -7.925781 4.515625 -9.59375 C 4.847656 -9.945312 5.238281 -10.164062 5.6875 -10.25 C 5.875 -10.28125 6.015625 -10.222656 6.109375 -10.078125 C 6.210938 -9.941406 6.234375 -9.78125 6.171875 -9.59375 C 6.085938 -9.425781 5.945312 -9.226562 5.75 -9 C 5.644531 -8.863281 5.546875 -8.734375 5.453125 -8.609375 C 5.359375 -8.484375 5.304688 -8.378906 5.296875 -8.296875 C 5.285156 -8.210938 5.34375 -8.1875 5.46875 -8.21875 C 5.65625 -8.300781 5.84375 -8.390625 6.03125 -8.484375 C 6.519531 -8.710938 6.984375 -8.929688 7.421875 -9.140625 C 7.816406 -9.328125 8.21875 -9.492188 8.625 -9.640625 C 9.039062 -9.796875 9.457031 -9.898438 9.875 -9.953125 C 10.507812 -9.992188 10.898438 -9.847656 11.046875 -9.515625 C 11.191406 -9.191406 11.0625 -8.742188 10.65625 -8.171875 C 10.25 -7.640625 9.835938 -7.117188 9.421875 -6.609375 C 8.960938 -6.117188 8.78125 -5.75 8.875 -5.5 C 8.96875 -5.25 9.953125 -5.539062 11.828125 -6.375 L 13.25 -7.0625 C 14.632812 -7.78125 15.335938 -8.046875 15.359375 -7.859375 Z M 15.359375 -7.859375 "/></g></g></g><g fill="#000000" fill-opacity="1"><g transform="translate(291.580872, 190.293211)"><g><path d="M 11.1875 -6.046875 C 10.363281 -5.453125 9.46875 -4.941406 8.5 -4.515625 C 7.539062 -4.085938 6.757812 -3.804688 6.15625 -3.671875 C 5.5625 -3.546875 4.972656 -3.472656 4.390625 -3.453125 C 3.453125 -3.410156 2.644531 -3.535156 1.96875 -3.828125 C 0.882812 -4.347656 0.804688 -5.332031 1.734375 -6.78125 C 2.554688 -8.03125 3.65625 -9.003906 5.03125 -9.703125 C 6.414062 -10.410156 7.703125 -10.753906 8.890625 -10.734375 C 8.890625 -10.734375 8.898438 -10.734375 8.921875 -10.734375 C 9.234375 -10.753906 9.507812 -10.734375 9.75 -10.671875 C 10.164062 -10.503906 10.363281 -10.226562 10.34375 -9.84375 C 10.332031 -9.46875 10.09375 -9.050781 9.625 -8.59375 C 8.59375 -7.570312 7.472656 -7.003906 6.265625 -6.890625 C 5.484375 -6.816406 4.757812 -6.851562 4.09375 -7 C 3.957031 -7.019531 3.820312 -6.984375 3.6875 -6.890625 C 3.550781 -6.796875 3.445312 -6.679688 3.375 -6.546875 C 2.832031 -5.640625 2.898438 -5.0625 3.578125 -4.8125 C 4.410156 -4.476562 5.394531 -4.476562 6.53125 -4.8125 C 7.84375 -5.175781 9.210938 -5.867188 10.640625 -6.890625 C 12.066406 -7.910156 12.847656 -8.382812 12.984375 -8.3125 C 13.128906 -8.25 13.109375 -8.050781 12.921875 -7.71875 C 12.597656 -7.207031 12.019531 -6.648438 11.1875 -6.046875 Z M 5.390625 -8.59375 C 5.304688 -8.519531 5.234375 -8.4375 5.171875 -8.34375 C 5.117188 -8.257812 5.125 -8.179688 5.1875 -8.109375 C 5.476562 -7.890625 5.847656 -7.804688 6.296875 -7.859375 C 6.753906 -7.921875 7.179688 -8.085938 7.578125 -8.359375 C 7.972656 -8.628906 8.222656 -8.957031 8.328125 -9.34375 C 8.347656 -9.476562 8.300781 -9.5625 8.1875 -9.59375 C 8.082031 -9.632812 7.96875 -9.644531 7.84375 -9.625 C 7.03125 -9.488281 6.210938 -9.144531 5.390625 -8.59375 Z M 5.390625 -8.59375 "/></g></g></g><g fill="#000000" fill-opacity="1"><g transform="translate(65.032083, 194.413053)"><g><path d="M 3.296875 -3 C 3.890625 -3 4.425781 -3.09375 4.90625 -3.28125 C 5.394531 -3.46875 5.78125 -3.753906 6.0625 -4.140625 C 6.351562 -4.535156 6.5 -5.023438 6.5 -5.609375 C 6.5 -6.472656 6.21875 -7.113281 5.65625 -7.53125 C 5.09375 -7.945312 4.347656 -8.15625 3.421875 -8.15625 L 1.078125 -8.15625 L 1.078125 0 L 2.234375 0 L 2.234375 -3 Z M 3.40625 -7.1875 C 4.03125 -7.1875 4.5 -7.0625 4.8125 -6.8125 C 5.132812 -6.570312 5.296875 -6.15625 5.296875 -5.5625 C 5.273438 -5.019531 5.085938 -4.613281 4.734375 -4.34375 C 4.390625 -4.082031 3.925781 -3.953125 3.34375 -3.953125 L 2.234375 -3.953125 L 2.234375 -7.1875 Z M 3.40625 -7.1875 "/></g></g></g><g fill="#000000" fill-opacity="1"><g transform="translate(73.480099, 194.413053)"><g><path d="M 5.859375 -8.15625 L 5.859375 -4.5625 L 2.234375 -4.5625 L 2.234375 -8.21875 L 1.078125 -8.15625 L 1.078125 0 L 2.234375 0 L 2.234375 -3.640625 L 5.859375 -3.640625 L 5.859375 0 L 7.015625 0 L 7.015625 -8.15625 Z M 5.859375 -8.15625 "/></g></g></g><g fill="#000000" fill-opacity="1"><g transform="translate(83.152118, 194.413053)"><g><path d="M 6.828125 -8.15625 L 5.609375 -8.15625 L 3.390625 -4.390625 L 1.234375 -8.359375 L 0.125 -7.953125 L 2.8125 -3.234375 L 2.8125 0 L 3.96875 0 L 3.984375 -3.25 Z M 6.828125 -8.15625 "/></g></g></g><g fill="#000000" fill-opacity="1"><g transform="translate(91.684135, 194.413053)"><g><path d="M 0.625 -0.4375 C 0.78125 -0.300781 1.113281 -0.164062 1.625 -0.03125 C 2.132812 0.09375 2.566406 0.15625 2.921875 0.15625 C 3.535156 0.15625 4.0625 0.0664062 4.5 -0.109375 C 4.9375 -0.296875 5.269531 -0.554688 5.5 -0.890625 C 5.738281 -1.222656 5.859375 -1.609375 5.859375 -2.046875 C 5.859375 -2.597656 5.6875 -3.050781 5.34375 -3.40625 C 5.007812 -3.757812 4.476562 -4.097656 3.75 -4.421875 C 3.195312 -4.671875 2.78125 -4.875 2.5 -5.03125 C 2.226562 -5.195312 2.015625 -5.378906 1.859375 -5.578125 C 1.703125 -5.773438 1.625 -6.003906 1.625 -6.265625 C 1.625 -6.609375 1.769531 -6.867188 2.0625 -7.046875 C 2.363281 -7.234375 2.753906 -7.328125 3.234375 -7.328125 C 3.578125 -7.328125 3.875 -7.289062 4.125 -7.21875 C 4.382812 -7.144531 4.65625 -7.039062 4.9375 -6.90625 L 5.3125 -7.8125 C 5.007812 -7.96875 4.664062 -8.097656 4.28125 -8.203125 C 3.90625 -8.304688 3.53125 -8.359375 3.15625 -8.359375 C 2.613281 -8.359375 2.140625 -8.265625 1.734375 -8.078125 C 1.328125 -7.890625 1.015625 -7.632812 0.796875 -7.3125 C 0.585938 -7 0.484375 -6.640625 0.484375 -6.234375 C 0.484375 -5.835938 0.554688 -5.492188 0.703125 -5.203125 C 0.859375 -4.921875 1.085938 -4.675781 1.390625 -4.46875 C 1.691406 -4.257812 2.09375 -4.039062 2.59375 -3.8125 C 3.101562 -3.59375 3.5 -3.398438 3.78125 -3.234375 C 4.070312 -3.066406 4.296875 -2.882812 4.453125 -2.6875 C 4.609375 -2.5 4.6875 -2.273438 4.6875 -2.015625 C 4.6875 -1.648438 4.53125 -1.363281 4.21875 -1.15625 C 3.90625 -0.945312 3.46875 -0.84375 2.90625 -0.84375 C 2.570312 -0.84375 2.210938 -0.894531 1.828125 -1 C 1.453125 -1.101562 1.140625 -1.222656 0.890625 -1.359375 Z M 0.625 -0.4375 "/></g></g></g><g fill="#000000" fill-opacity="1"><g transform="translate(99.484141, 194.413053)"><g><path d="M 1.078125 -8.15625 L 1.078125 0 L 2.234375 0 L 2.234375 -8.15625 Z M 1.078125 -8.15625 "/></g></g></g><g fill="#000000" fill-opacity="1"><g transform="translate(104.380152, 194.413053)"><g><path d="M 4.375 -8.359375 C 3.632812 -8.335938 2.96875 -8.140625 2.375 -7.765625 C 1.78125 -7.390625 1.316406 -6.875 0.984375 -6.21875 C 0.648438 -5.570312 0.484375 -4.847656 0.484375 -4.046875 C 0.484375 -3.234375 0.644531 -2.503906 0.96875 -1.859375 C 1.300781 -1.222656 1.757812 -0.722656 2.34375 -0.359375 C 2.9375 -0.00390625 3.601562 0.171875 4.34375 0.171875 C 5.09375 0.160156 5.765625 -0.03125 6.359375 -0.40625 C 6.960938 -0.78125 7.429688 -1.289062 7.765625 -1.9375 C 8.097656 -2.59375 8.265625 -3.320312 8.265625 -4.125 C 8.265625 -4.9375 8.097656 -5.660156 7.765625 -6.296875 C 7.429688 -6.941406 6.96875 -7.445312 6.375 -7.8125 C 5.789062 -8.175781 5.125 -8.359375 4.375 -8.359375 Z M 1.6875 -4.0625 C 1.6875 -4.6875 1.800781 -5.25 2.03125 -5.75 C 2.257812 -6.25 2.582031 -6.640625 3 -6.921875 C 3.414062 -7.210938 3.882812 -7.359375 4.40625 -7.359375 C 4.90625 -7.359375 5.351562 -7.21875 5.75 -6.9375 C 6.15625 -6.664062 6.472656 -6.28125 6.703125 -5.78125 C 6.929688 -5.289062 7.046875 -4.738281 7.046875 -4.125 C 7.046875 -3.5 6.925781 -2.929688 6.6875 -2.421875 C 6.457031 -1.921875 6.132812 -1.523438 5.71875 -1.234375 C 5.3125 -0.953125 4.847656 -0.8125 4.328125 -0.8125 C 3.828125 -0.8125 3.375 -0.945312 2.96875 -1.21875 C 2.5625 -1.5 2.242188 -1.882812 2.015625 -2.375 C 1.796875 -2.875 1.6875 -3.4375 1.6875 -4.0625 Z M 1.6875 -4.0625 "/></g></g></g><g fill="#000000" fill-opacity="1"><g transform="translate(114.712164, 194.413053)"><g><path d="M 0.125 -7.25 L 2.765625 -7.25 L 2.765625 0 L 3.9375 0 L 3.9375 -7.25 L 6.75 -7.25 L 6.59375 -8.15625 L 0.125 -8.15625 Z M 0.125 -7.25 "/></g></g></g><g fill="#000000" fill-opacity="1"><g transform="translate(123.16018, 194.413053)"><g><path d="M 5.859375 -8.15625 L 5.859375 -4.5625 L 2.234375 -4.5625 L 2.234375 -8.21875 L 1.078125 -8.15625 L 1.078125 0 L 2.234375 0 L 2.234375 -3.640625 L 5.859375 -3.640625 L 5.859375 0 L 7.015625 0 L 7.015625 -8.15625 Z M 5.859375 -8.15625 "/></g></g></g><g fill="#000000" fill-opacity="1"><g transform="translate(132.832199, 194.413053)"><g><path d="M 2.234375 -0.90625 L 2.234375 -3.703125 L 5.15625 -3.703125 L 5 -4.59375 L 2.234375 -4.59375 L 2.234375 -7.265625 L 5.828125 -7.265625 L 5.671875 -8.15625 L 1.078125 -8.15625 L 1.078125 0 L 6.265625 0 L 6.109375 -0.90625 Z M 2.234375 -0.90625 "/></g></g></g><g fill="#000000" fill-opacity="1"><g transform="translate(140.920208, 194.413053)"><g><path d="M 2.234375 0 L 2.234375 -3.265625 L 3.296875 -3.265625 C 3.671875 -3.265625 3.925781 -3.273438 4.0625 -3.296875 L 5.875 0 L 7.125 0 L 5.078125 -3.59375 C 5.503906 -3.78125 5.84375 -4.054688 6.09375 -4.421875 C 6.351562 -4.785156 6.488281 -5.222656 6.5 -5.734375 C 6.5 -6.546875 6.210938 -7.148438 5.640625 -7.546875 C 5.078125 -7.953125 4.335938 -8.15625 3.421875 -8.15625 L 1.078125 -8.15625 L 1.078125 0 Z M 3.40625 -7.1875 C 4.019531 -7.1875 4.488281 -7.070312 4.8125 -6.84375 C 5.132812 -6.613281 5.296875 -6.226562 5.296875 -5.6875 C 5.296875 -5.164062 5.113281 -4.785156 4.75 -4.546875 C 4.394531 -4.316406 3.925781 -4.203125 3.34375 -4.203125 L 2.234375 -4.203125 L 2.234375 -7.1875 Z M 3.40625 -7.1875 "/></g></g></g><g fill="#000000" fill-opacity="1"><g transform="translate(149.752219, 194.413053)"><g><path d="M 1.25 0 L 2.0625 -2.1875 L 5.390625 -2.1875 L 6.234375 0.09375 L 7.375 -0.078125 L 4.234375 -8.15625 L 3.1875 -8.15625 L 0.125 0 Z M 3.703125 -6.609375 L 5.046875 -3.109375 L 2.390625 -3.109375 Z M 3.703125 -6.609375 "/></g></g></g><g fill="#000000" fill-opacity="1"><g transform="translate(158.83623, 194.413053)"><g><path d="M 3.296875 -3 C 3.890625 -3 4.425781 -3.09375 4.90625 -3.28125 C 5.394531 -3.46875 5.78125 -3.753906 6.0625 -4.140625 C 6.351562 -4.535156 6.5 -5.023438 6.5 -5.609375 C 6.5 -6.472656 6.21875 -7.113281 5.65625 -7.53125 C 5.09375 -7.945312 4.347656 -8.15625 3.421875 -8.15625 L 1.078125 -8.15625 L 1.078125 0 L 2.234375 0 L 2.234375 -3 Z M 3.40625 -7.1875 C 4.03125 -7.1875 4.5 -7.0625 4.8125 -6.8125 C 5.132812 -6.570312 5.296875 -6.15625 5.296875 -5.5625 C 5.273438 -5.019531 5.085938 -4.613281 4.734375 -4.34375 C 4.390625 -4.082031 3.925781 -3.953125 3.34375 -3.953125 L 2.234375 -3.953125 L 2.234375 -7.1875 Z M 3.40625 -7.1875 "/></g></g></g><g fill="#000000" fill-opacity="1"><g transform="translate(167.284246, 194.413053)"><g><path d="M 1.078125 -8.15625 L 1.078125 0 L 2.234375 0 L 2.234375 -8.15625 Z M 1.078125 -8.15625 "/></g></g></g><g fill="#000000" fill-opacity="1"><g transform="translate(172.180257, 194.413053)"><g><path d="M 0.625 -0.4375 C 0.78125 -0.300781 1.113281 -0.164062 1.625 -0.03125 C 2.132812 0.09375 2.566406 0.15625 2.921875 0.15625 C 3.535156 0.15625 4.0625 0.0664062 4.5 -0.109375 C 4.9375 -0.296875 5.269531 -0.554688 5.5 -0.890625 C 5.738281 -1.222656 5.859375 -1.609375 5.859375 -2.046875 C 5.859375 -2.597656 5.6875 -3.050781 5.34375 -3.40625 C 5.007812 -3.757812 4.476562 -4.097656 3.75 -4.421875 C 3.195312 -4.671875 2.78125 -4.875 2.5 -5.03125 C 2.226562 -5.195312 2.015625 -5.378906 1.859375 -5.578125 C 1.703125 -5.773438 1.625 -6.003906 1.625 -6.265625 C 1.625 -6.609375 1.769531 -6.867188 2.0625 -7.046875 C 2.363281 -7.234375 2.753906 -7.328125 3.234375 -7.328125 C 3.578125 -7.328125 3.875 -7.289062 4.125 -7.21875 C 4.382812 -7.144531 4.65625 -7.039062 4.9375 -6.90625 L 5.3125 -7.8125 C 5.007812 -7.96875 4.664062 -8.097656 4.28125 -8.203125 C 3.90625 -8.304688 3.53125 -8.359375 3.15625 -8.359375 C 2.613281 -8.359375 2.140625 -8.265625 1.734375 -8.078125 C 1.328125 -7.890625 1.015625 -7.632812 0.796875 -7.3125 C 0.585938 -7 0.484375 -6.640625 0.484375 -6.234375 C 0.484375 -5.835938 0.554688 -5.492188 0.703125 -5.203125 C 0.859375 -4.921875 1.085938 -4.675781 1.390625 -4.46875 C 1.691406 -4.257812 2.09375 -4.039062 2.59375 -3.8125 C 3.101562 -3.59375 3.5 -3.398438 3.78125 -3.234375 C 4.070312 -3.066406 4.296875 -2.882812 4.453125 -2.6875 C 4.609375 -2.5 4.6875 -2.273438 4.6875 -2.015625 C 4.6875 -1.648438 4.53125 -1.363281 4.21875 -1.15625 C 3.90625 -0.945312 3.46875 -0.84375 2.90625 -0.84375 C 2.570312 -0.84375 2.210938 -0.894531 1.828125 -1 C 1.453125 -1.101562 1.140625 -1.222656 0.890625 -1.359375 Z M 0.625 -0.4375 "/></g></g></g><g fill="#000000" fill-opacity="1"><g transform="translate(179.980264, 194.413053)"><g><path d="M 0.125 -7.25 L 2.765625 -7.25 L 2.765625 0 L 3.9375 0 L 3.9375 -7.25 L 6.75 -7.25 L 6.59375 -8.15625 L 0.125 -8.15625 Z M 0.125 -7.25 "/></g></g></g><path stroke-linecap="butt" transform="matrix(0.000000000000000046, -0.748858, 0.75, 0.000000000000000046, 55.017409, 249.093735)" fill="none" stroke-linejoin="miter" d="M -0.0000202404 0.997622 L 164.265641 0.997622 " stroke="#000000" stroke-width="2" stroke-opacity="1" stroke-miterlimit="4"/><path stroke-linecap="butt" transform="matrix(-0.748858, -0.00087478, 0.000876114, -0.749999, 167.57762, 173.115106)" fill="none" stroke-linejoin="miter" d="M 0.000498281 1.002433 L 164.266265 0.998338 " stroke="#000000" stroke-width="2" stroke-opacity="1" stroke-miterlimit="4"/></svg>